<svg width="195" height="195" viewBox="0 0 195 195" fill="none" xmlns="http://www.w3.org/2000/svg">
<path d="M0.646484 27.5095V166.93C0.655011 174.181 3.53998 181.13 8.66494 186.257C13.7925 191.385 20.7421 194.267 27.9921 194.276H167.413C174.663 194.267 181.613 191.385 186.74 186.257C191.865 181.13 194.75 174.18 194.758 166.93V27.5095C194.75 20.2588 191.865 13.3091 186.74 8.18228C181.612 3.05477 174.663 0.17255 167.413 0.163818H27.9921C20.7415 0.172345 13.7918 3.05447 8.66494 8.18228C3.54027 13.3098 0.655216 20.2594 0.646484 27.5095ZM27.9921 183.236C23.669 183.23 19.5218 181.511 16.4636 178.453C13.4053 175.394 11.6858 171.25 11.6801 166.924V130.546L55.9831 84.5174C58.4075 82.0105 61.7216 80.5609 65.2094 80.4785C68.694 80.3989 72.0735 81.6922 74.6118 84.0825L176.494 180.464C173.811 182.272 170.647 183.238 167.413 183.235L27.9921 183.236ZM183.726 166.924C183.703 168.456 183.462 169.974 183.01 171.435L120.397 112.202L128.366 104.408C130.805 102.015 134.074 100.659 137.49 100.628C140.907 100.597 144.201 101.89 146.685 104.235L183.726 139.081L183.726 166.924ZM183.726 27.5037V123.921L154.248 96.1923C149.695 91.8891 143.65 89.5186 137.385 89.5812C131.121 89.6409 125.121 92.125 120.65 96.5163L112.373 104.608L82.1989 76.0635V76.0606C77.5404 71.6807 71.3441 69.3102 64.9519 69.4608C58.5596 69.6086 52.4826 72.269 48.0317 76.8623L11.6817 114.63V27.5045C11.6874 23.1813 13.4069 19.0342 16.4652 15.9759C19.5235 12.9177 23.6704 11.198 27.9938 11.1924H167.414C171.737 11.1981 175.885 12.9177 178.943 15.9759C182.001 19.0342 183.721 23.1811 183.726 27.5045L183.726 27.5037Z" fill="#393939"/>
<path d="M138.43 67.6672C143.938 67.6672 149.222 65.4786 153.119 61.5847C157.016 57.6879 159.205 52.4042 159.205 46.8953C159.205 41.387 157.016 36.1032 153.119 32.206C149.225 28.3092 143.942 26.1207 138.433 26.1207C132.922 26.1207 127.638 28.3092 123.744 32.206C119.847 36.1 117.658 41.3836 117.658 46.8924C117.664 52.4008 119.855 57.6817 123.749 61.5759C127.643 65.4702 132.921 67.6615 138.43 67.6672ZM138.43 37.1549C142.369 37.1549 145.919 39.5282 147.429 43.1663C148.935 46.8073 148.102 50.9941 145.317 53.7795C142.531 56.5648 138.342 57.4006 134.704 55.8913C131.063 54.3849 128.692 50.832 128.692 46.8927C128.698 41.518 133.055 37.1636 138.43 37.1549Z" fill="#393939"/>
</svg>
