<svg id="svg" fill="#ff0000" stroke="#ff0000" width="374" height="374" version="1.1" viewBox="143 143 514 514" xmlns="http://www.w3.org/2000/svg" transform="matrix(1, 0, 0, 1, 0, 0)" stroke-width="0">
    <g id="IconSvg_bgCarrier" stroke-width="0"></g>
    <g id="IconSvg_tracerCarrier" stroke-linecap="round" stroke-linejoin="round" stroke="#CCCCCC" stroke-width="0">
      <g xmlns="http://www.w3.org/2000/svg">
  <path d="m264.83 308.62v191.61c0.011719 9.9648 3.9766 19.516 11.02 26.562 7.0469 7.0469 16.598 11.008 26.562 11.02h191.61c9.9648-0.011719 19.516-3.9727 26.562-11.02 7.043-7.0469 11.008-16.598 11.02-26.562v-191.61c-0.011719-9.9648-3.9766-19.516-11.02-26.562-7.0469-7.0469-16.598-11.008-26.562-11.02h-191.61c-9.9648 0.011719-19.516 3.9727-26.562 11.02-7.043 7.0469-11.008 16.598-11.02 26.562zm37.582 214.02c-5.9414-0.007813-11.641-2.3711-15.844-6.5742-4.2031-4.2031-6.5664-9.8984-6.5742-15.844v-49.996l60.887-63.258c3.332-3.4453 7.8867-5.4375 12.68-5.5508 4.7891-0.10938 9.4336 1.668 12.922 4.9531l140.02 132.46c-3.6875 2.4844-8.0352 3.8125-12.48 3.8086zm214.03-22.418c-0.03125 2.1055-0.36328 4.1914-0.98438 6.1992l-86.051-81.406 10.953-10.711c3.3516-3.2891 7.8438-5.1523 12.539-5.1953 4.6953-0.042969 9.2227 1.7344 12.637 4.957l50.906 47.891zm0-191.61v132.51l-40.512-38.109c-6.2578-5.9141-14.566-9.1719-23.176-9.0859-8.6094 0.082031-16.855 3.4961-23 9.5312l-11.375 11.121-41.469-39.23v-0.003907c-6.4023-6.0195-14.918-9.2773-23.703-9.0703-8.7852 0.20312-17.137 3.8594-23.254 10.172l-49.957 51.906v-119.74c0.007812-5.9414 2.3711-11.641 6.5742-15.844 4.2031-4.2031 9.9023-6.5664 15.844-6.5742h191.61c5.9414 0.007812 11.641 2.3711 15.844 6.5742 4.2031 4.2031 6.5664 9.9023 6.5742 15.844z"></path>
  <path d="m454.19 363.81c7.5703 0 14.832-3.0078 20.188-8.3594 5.3555-5.3555 8.3633-12.617 8.3633-20.188 0-7.5703-3.0078-14.832-8.3633-20.188-5.3516-5.3555-12.613-8.3633-20.184-8.3633-7.5742 0-14.836 3.0078-20.188 8.3633-5.3555 5.3516-8.3633 12.613-8.3633 20.184 0.007813 7.5703 3.0195 14.828 8.3711 20.18s12.605 8.3633 20.176 8.3711zm0-41.934c5.4141 0 10.293 3.2617 12.367 8.2617 2.0703 5.0039 0.92578 10.758-2.9023 14.586s-9.5859 4.9766-14.586 2.9023c-5.0039-2.0703-8.2617-6.9531-8.2617-12.367 0.007812-7.3867 5.9961-13.371 13.383-13.383z"></path>
 </g>

      </g>
     <g id="IconSvg_iconCarrier">
      <g xmlns="http://www.w3.org/2000/svg">
  <path d="m264.83 308.62v191.61c0.011719 9.9648 3.9766 19.516 11.02 26.562 7.0469 7.0469 16.598 11.008 26.562 11.02h191.61c9.9648-0.011719 19.516-3.9727 26.562-11.02 7.043-7.0469 11.008-16.598 11.02-26.562v-191.61c-0.011719-9.9648-3.9766-19.516-11.02-26.562-7.0469-7.0469-16.598-11.008-26.562-11.02h-191.61c-9.9648 0.011719-19.516 3.9727-26.562 11.02-7.043 7.0469-11.008 16.598-11.02 26.562zm37.582 214.02c-5.9414-0.007813-11.641-2.3711-15.844-6.5742-4.2031-4.2031-6.5664-9.8984-6.5742-15.844v-49.996l60.887-63.258c3.332-3.4453 7.8867-5.4375 12.68-5.5508 4.7891-0.10938 9.4336 1.668 12.922 4.9531l140.02 132.46c-3.6875 2.4844-8.0352 3.8125-12.48 3.8086zm214.03-22.418c-0.03125 2.1055-0.36328 4.1914-0.98438 6.1992l-86.051-81.406 10.953-10.711c3.3516-3.2891 7.8438-5.1523 12.539-5.1953 4.6953-0.042969 9.2227 1.7344 12.637 4.957l50.906 47.891zm0-191.61v132.51l-40.512-38.109c-6.2578-5.9141-14.566-9.1719-23.176-9.0859-8.6094 0.082031-16.855 3.4961-23 9.5312l-11.375 11.121-41.469-39.23v-0.003907c-6.4023-6.0195-14.918-9.2773-23.703-9.0703-8.7852 0.20312-17.137 3.8594-23.254 10.172l-49.957 51.906v-119.74c0.007812-5.9414 2.3711-11.641 6.5742-15.844 4.2031-4.2031 9.9023-6.5664 15.844-6.5742h191.61c5.9414 0.007812 11.641 2.3711 15.844 6.5742 4.2031 4.2031 6.5664 9.9023 6.5742 15.844z"></path>
  <path d="m454.19 363.81c7.5703 0 14.832-3.0078 20.188-8.3594 5.3555-5.3555 8.3633-12.617 8.3633-20.188 0-7.5703-3.0078-14.832-8.3633-20.188-5.3516-5.3555-12.613-8.3633-20.184-8.3633-7.5742 0-14.836 3.0078-20.188 8.3633-5.3555 5.3516-8.3633 12.613-8.3633 20.184 0.007813 7.5703 3.0195 14.828 8.3711 20.18s12.605 8.3633 20.176 8.3711zm0-41.934c5.4141 0 10.293 3.2617 12.367 8.2617 2.0703 5.0039 0.92578 10.758-2.9023 14.586s-9.5859 4.9766-14.586 2.9023c-5.0039-2.0703-8.2617-6.9531-8.2617-12.367 0.007812-7.3867 5.9961-13.371 13.383-13.383z"></path>
 </g>

      </g>
      </svg>